<svg width="1512" height="982" viewBox="0 0 1512 982" fill="none" xmlns="http://www.w3.org/2000/svg">
<g clip-path="url(#clip0_0_3)">
<g filter="url(#filter0_f_0_3)">
<ellipse cx="756.5" cy="1042.5" rx="666.5" ry="530.5" fill="#8DFB4E" fill-opacity="0.15"/>
</g>
<g opacity="0.05">
<line x1="197" y1="472.5" x2="1242" y2="472.5" stroke="white"/>
<line x1="81" y1="792.5" x2="1358" y2="792.5" stroke="white"/>
<line x1="81" y1="728.5" x2="1358" y2="728.5" stroke="white"/>
<line x1="197" y1="408.5" x2="1242" y2="408.5" stroke="white"/>
<line x1="197" y1="664.5" x2="1242" y2="664.5" stroke="white"/>
<line x1="81" y1="344.5" x2="1358" y2="344.5" stroke="white"/>
<line x1="197" y1="600.5" x2="1242" y2="600.5" stroke="white"/>
<line x1="81" y1="920.5" x2="1358" y2="920.5" stroke="white"/>
<line x1="197" y1="536.5" x2="1242" y2="536.5" stroke="white"/>
<line x1="81" y1="856.5" x2="1358" y2="856.5" stroke="white"/>
<line x1="4.37114e-08" y1="248.5" x2="1440" y2="248.5" stroke="white"/>
<line x1="4.37114e-08" y1="80.5001" x2="1440" y2="80.5003" stroke="white" stroke-opacity="0.5"/>
<line x1="4.37114e-08" y1="0.5" x2="1440" y2="0.500126" stroke="white"/>
<line x1="81.5001" y1="1011" x2="81.5001" y2="80" stroke="white"/>
<line x1="661.5" y1="793" x2="661.5" y2="536" stroke="white"/>
<line x1="1009.5" y1="793" x2="1009.5" y2="536" stroke="white"/>
<line x1="429.5" y1="793" x2="429.5" y2="536" stroke="white"/>
<line x1="1357.5" y1="1011" x2="1357.5" y2="80" stroke="white"/>
<line x1="313.5" y1="921" x2="313.5" y2="410" stroke="white"/>
<line x1="1241.5" y1="1011" x2="1241.5" y2="248" stroke="white"/>
<line x1="197.5" y1="1011" x2="197.5" y2="248" stroke="white"/>
<line x1="777.5" y1="793" x2="777.5" y2="536" stroke="white"/>
<line x1="1125.5" y1="921" x2="1125.5" y2="410" stroke="white"/>
<g clip-path="url(#clip1_0_3)">
<mask id="path-25-inside-1_0_3" fill="white">
<path d="M1357 344H1476V729H1357V344Z"/>
</mask>
<line x1="1296.65" y1="389.124" x2="1492.13" y2="297.97" stroke="white"/>
<line x1="1296.65" y1="620.512" x2="1492.13" y2="529.359" stroke="white"/>
<line x1="1296.65" y1="504.818" x2="1492.13" y2="413.665" stroke="white"/>
<line x1="1296.65" y1="736.207" x2="1492.13" y2="645.053" stroke="white"/>
<line x1="1296.65" y1="405.651" x2="1492.13" y2="314.498" stroke="white"/>
<line x1="1296.65" y1="637.04" x2="1492.13" y2="545.887" stroke="white"/>
<line x1="1296.65" y1="521.346" x2="1492.13" y2="430.192" stroke="white"/>
<line x1="1296.65" y1="752.735" x2="1492.13" y2="661.581" stroke="white"/>
<line x1="1296.65" y1="422.179" x2="1492.13" y2="331.026" stroke="white"/>
<line x1="1296.65" y1="653.568" x2="1492.13" y2="562.414" stroke="white"/>
<line x1="1296.65" y1="537.874" x2="1492.13" y2="446.72" stroke="white"/>
<line x1="1296.65" y1="769.262" x2="1492.13" y2="678.109" stroke="white"/>
<line x1="1296.65" y1="438.707" x2="1492.13" y2="347.553" stroke="white"/>
<line x1="1296.65" y1="670.096" x2="1492.13" y2="578.942" stroke="white"/>
<line x1="1296.65" y1="554.401" x2="1492.13" y2="463.248" stroke="white"/>
<line x1="1296.65" y1="785.79" x2="1492.13" y2="694.637" stroke="white"/>
<line x1="1296.65" y1="455.235" x2="1492.13" y2="364.081" stroke="white"/>
<line x1="1296.65" y1="686.624" x2="1492.13" y2="595.47" stroke="white"/>
<line x1="1296.65" y1="570.929" x2="1492.13" y2="479.776" stroke="white"/>
<line x1="1296.65" y1="802.318" x2="1492.13" y2="711.164" stroke="white"/>
<line x1="1296.65" y1="471.763" x2="1492.13" y2="380.609" stroke="white"/>
<line x1="1296.65" y1="703.151" x2="1492.13" y2="611.998" stroke="white"/>
<line x1="1296.65" y1="587.457" x2="1492.13" y2="496.303" stroke="white"/>
<line x1="1296.65" y1="818.846" x2="1492.13" y2="727.692" stroke="white"/>
<line x1="1296.65" y1="488.29" x2="1492.13" y2="397.137" stroke="white"/>
<line x1="1296.65" y1="719.679" x2="1492.13" y2="628.526" stroke="white"/>
<line x1="1296.65" y1="603.985" x2="1492.13" y2="512.831" stroke="white"/>
</g>
<path d="M1357 345H1476V343H1357V345ZM1476 728H1357V730H1476V728Z" fill="white" mask="url(#path-25-inside-1_0_3)"/>
<g clip-path="url(#clip2_0_3)">
<mask id="path-54-inside-2_0_3" fill="white">
<path d="M-37 344H82V729H-37V344Z"/>
</mask>
<line x1="-97.35" y1="389.124" x2="98.1292" y2="297.97" stroke="white"/>
<line x1="-97.35" y1="620.512" x2="98.1292" y2="529.359" stroke="white"/>
<line x1="-97.35" y1="504.818" x2="98.1292" y2="413.665" stroke="white"/>
<line x1="-97.35" y1="736.207" x2="98.1292" y2="645.053" stroke="white"/>
<line x1="-97.35" y1="405.651" x2="98.1292" y2="314.498" stroke="white"/>
<line x1="-97.35" y1="637.04" x2="98.1292" y2="545.887" stroke="white"/>
<line x1="-97.35" y1="521.346" x2="98.1292" y2="430.192" stroke="white"/>
<line x1="-97.35" y1="752.735" x2="98.1292" y2="661.581" stroke="white"/>
<line x1="-97.35" y1="422.179" x2="98.1292" y2="331.026" stroke="white"/>
<line x1="-97.35" y1="653.568" x2="98.1292" y2="562.414" stroke="white"/>
<line x1="-97.35" y1="537.874" x2="98.1292" y2="446.72" stroke="white"/>
<line x1="-97.35" y1="769.262" x2="98.1292" y2="678.109" stroke="white"/>
<line x1="-97.35" y1="438.707" x2="98.1292" y2="347.553" stroke="white"/>
<line x1="-97.35" y1="670.096" x2="98.1292" y2="578.942" stroke="white"/>
<line x1="-97.35" y1="554.401" x2="98.1292" y2="463.248" stroke="white"/>
<line x1="-97.35" y1="785.79" x2="98.1292" y2="694.637" stroke="white"/>
<line x1="-97.35" y1="455.235" x2="98.1292" y2="364.081" stroke="white"/>
<line x1="-97.35" y1="686.624" x2="98.1292" y2="595.47" stroke="white"/>
<line x1="-97.35" y1="570.929" x2="98.1292" y2="479.776" stroke="white"/>
<line x1="-97.35" y1="802.318" x2="98.1292" y2="711.164" stroke="white"/>
<line x1="-97.35" y1="471.763" x2="98.1292" y2="380.609" stroke="white"/>
<line x1="-97.35" y1="703.151" x2="98.1292" y2="611.998" stroke="white"/>
<line x1="-97.35" y1="587.457" x2="98.1292" y2="496.303" stroke="white"/>
<line x1="-97.35" y1="818.846" x2="98.1292" y2="727.692" stroke="white"/>
<line x1="-97.35" y1="488.29" x2="98.1292" y2="397.137" stroke="white"/>
<line x1="-97.35" y1="719.679" x2="98.1292" y2="628.526" stroke="white"/>
<line x1="-97.35" y1="603.985" x2="98.1292" y2="512.831" stroke="white"/>
</g>
<path d="M-37 345H82V343H-37V345ZM82 728H-37V730H82V728Z" fill="white" mask="url(#path-54-inside-2_0_3)"/>
<g clip-path="url(#clip3_0_3)">
<mask id="path-83-inside-3_0_3" fill="white">
<path d="M741 1040V921H1126V1040H741Z"/>
</mask>
<line x1="786.124" y1="1100.35" x2="694.97" y2="904.871" stroke="white"/>
<line x1="1017.51" y1="1100.35" x2="926.359" y2="904.871" stroke="white"/>
<line x1="901.818" y1="1100.35" x2="810.665" y2="904.871" stroke="white"/>
<line x1="1133.21" y1="1100.35" x2="1042.05" y2="904.871" stroke="white"/>
<line x1="802.651" y1="1100.35" x2="711.498" y2="904.871" stroke="white"/>
<line x1="1034.04" y1="1100.35" x2="942.887" y2="904.871" stroke="white"/>
<line x1="918.346" y1="1100.35" x2="827.192" y2="904.871" stroke="white"/>
<line x1="1149.73" y1="1100.35" x2="1058.58" y2="904.871" stroke="white"/>
<line x1="819.179" y1="1100.35" x2="728.026" y2="904.871" stroke="white"/>
<line x1="1050.57" y1="1100.35" x2="959.414" y2="904.871" stroke="white"/>
<line x1="934.874" y1="1100.35" x2="843.72" y2="904.871" stroke="white"/>
<line x1="1166.26" y1="1100.35" x2="1075.11" y2="904.871" stroke="white"/>
<line x1="835.707" y1="1100.35" x2="744.553" y2="904.871" stroke="white"/>
<line x1="1067.1" y1="1100.35" x2="975.942" y2="904.871" stroke="white"/>
<line x1="951.401" y1="1100.35" x2="860.248" y2="904.871" stroke="white"/>
<line x1="1182.79" y1="1100.35" x2="1091.64" y2="904.871" stroke="white"/>
<line x1="852.235" y1="1100.35" x2="761.081" y2="904.871" stroke="white"/>
<line x1="1083.62" y1="1100.35" x2="992.47" y2="904.871" stroke="white"/>
<line x1="967.929" y1="1100.35" x2="876.776" y2="904.871" stroke="white"/>
<line x1="1199.32" y1="1100.35" x2="1108.16" y2="904.871" stroke="white"/>
<line x1="868.763" y1="1100.35" x2="777.609" y2="904.871" stroke="white"/>
<line x1="1100.15" y1="1100.35" x2="1009" y2="904.871" stroke="white"/>
<line x1="984.457" y1="1100.35" x2="893.303" y2="904.871" stroke="white"/>
<line x1="1215.85" y1="1100.35" x2="1124.69" y2="904.871" stroke="white"/>
<line x1="885.29" y1="1100.35" x2="794.137" y2="904.871" stroke="white"/>
<line x1="1116.68" y1="1100.35" x2="1025.53" y2="904.871" stroke="white"/>
<line x1="1000.98" y1="1100.35" x2="909.831" y2="904.871" stroke="white"/>
</g>
<path d="M742 1040V921H740V1040H742ZM1125 921V1040H1127V921H1125Z" fill="white" mask="url(#path-83-inside-3_0_3)"/>
<g clip-path="url(#clip4_0_3)">
<mask id="path-112-inside-4_0_3" fill="white">
<path d="M314 1040V921H699V1040H314Z"/>
</mask>
<line x1="359.124" y1="1100.35" x2="267.97" y2="904.871" stroke="white"/>
<line x1="590.512" y1="1100.35" x2="499.359" y2="904.871" stroke="white"/>
<line x1="474.818" y1="1100.35" x2="383.665" y2="904.871" stroke="white"/>
<line x1="706.207" y1="1100.35" x2="615.053" y2="904.871" stroke="white"/>
<line x1="375.651" y1="1100.35" x2="284.498" y2="904.871" stroke="white"/>
<line x1="607.04" y1="1100.35" x2="515.887" y2="904.871" stroke="white"/>
<line x1="491.346" y1="1100.35" x2="400.192" y2="904.871" stroke="white"/>
<line x1="722.735" y1="1100.35" x2="631.581" y2="904.871" stroke="white"/>
<line x1="392.179" y1="1100.35" x2="301.026" y2="904.871" stroke="white"/>
<line x1="623.568" y1="1100.35" x2="532.414" y2="904.871" stroke="white"/>
<line x1="507.874" y1="1100.35" x2="416.72" y2="904.871" stroke="white"/>
<line x1="739.262" y1="1100.35" x2="648.109" y2="904.871" stroke="white"/>
<line x1="408.707" y1="1100.35" x2="317.553" y2="904.871" stroke="white"/>
<line x1="640.096" y1="1100.35" x2="548.942" y2="904.871" stroke="white"/>
<line x1="524.401" y1="1100.35" x2="433.248" y2="904.871" stroke="white"/>
<line x1="755.79" y1="1100.35" x2="664.637" y2="904.871" stroke="white"/>
<line x1="425.235" y1="1100.35" x2="334.081" y2="904.871" stroke="white"/>
<line x1="656.624" y1="1100.35" x2="565.47" y2="904.871" stroke="white"/>
<line x1="540.929" y1="1100.35" x2="449.776" y2="904.871" stroke="white"/>
<line x1="772.318" y1="1100.35" x2="681.164" y2="904.871" stroke="white"/>
<line x1="441.763" y1="1100.35" x2="350.609" y2="904.871" stroke="white"/>
<line x1="673.151" y1="1100.35" x2="581.998" y2="904.871" stroke="white"/>
<line x1="557.457" y1="1100.35" x2="466.303" y2="904.871" stroke="white"/>
<line x1="788.846" y1="1100.35" x2="697.692" y2="904.871" stroke="white"/>
<line x1="458.29" y1="1100.35" x2="367.137" y2="904.871" stroke="white"/>
<line x1="689.679" y1="1100.35" x2="598.526" y2="904.871" stroke="white"/>
<line x1="573.985" y1="1100.35" x2="482.831" y2="904.871" stroke="white"/>
</g>
<path d="M315 1040V921H313V1040H315ZM698 921V1040H700V921H698Z" fill="white" mask="url(#path-112-inside-4_0_3)"/>
</g>
<g filter="url(#filter1_f_0_3)">
<ellipse cx="44.5" cy="1021.5" rx="666.5" ry="530.5" fill="#0C0C0C"/>
</g>
<g filter="url(#filter2_f_0_3)">
<ellipse cx="44.5" cy="398.5" rx="666.5" ry="530.5" fill="#0C0C0C"/>
</g>
<g filter="url(#filter3_f_0_3)">
<ellipse cx="1566.5" cy="512.5" rx="666.5" ry="530.5" fill="#0C0C0C"/>
</g>
<g filter="url(#filter4_f_0_3)">
<ellipse cx="1625.5" cy="1021.5" rx="666.5" ry="530.5" fill="#0C0C0C"/>
</g>
</g>
<defs>
<filter id="filter0_f_0_3" x="-642" y="-220" width="2797" height="2525" filterUnits="userSpaceOnUse" color-interpolation-filters="sRGB">
<feFlood flood-opacity="0" result="BackgroundImageFix"/>
<feBlend mode="normal" in="SourceGraphic" in2="BackgroundImageFix" result="shape"/>
<feGaussianBlur stdDeviation="366" result="effect1_foregroundBlur_0_3"/>
</filter>
<filter id="filter1_f_0_3" x="-1354" y="-241" width="2797" height="2525" filterUnits="userSpaceOnUse" color-interpolation-filters="sRGB">
<feFlood flood-opacity="0" result="BackgroundImageFix"/>
<feBlend mode="normal" in="SourceGraphic" in2="BackgroundImageFix" result="shape"/>
<feGaussianBlur stdDeviation="366" result="effect1_foregroundBlur_0_3"/>
</filter>
<filter id="filter2_f_0_3" x="-1354" y="-864" width="2797" height="2525" filterUnits="userSpaceOnUse" color-interpolation-filters="sRGB">
<feFlood flood-opacity="0" result="BackgroundImageFix"/>
<feBlend mode="normal" in="SourceGraphic" in2="BackgroundImageFix" result="shape"/>
<feGaussianBlur stdDeviation="366" result="effect1_foregroundBlur_0_3"/>
</filter>
<filter id="filter3_f_0_3" x="168" y="-750" width="2797" height="2525" filterUnits="userSpaceOnUse" color-interpolation-filters="sRGB">
<feFlood flood-opacity="0" result="BackgroundImageFix"/>
<feBlend mode="normal" in="SourceGraphic" in2="BackgroundImageFix" result="shape"/>
<feGaussianBlur stdDeviation="366" result="effect1_foregroundBlur_0_3"/>
</filter>
<filter id="filter4_f_0_3" x="227" y="-241" width="2797" height="2525" filterUnits="userSpaceOnUse" color-interpolation-filters="sRGB">
<feFlood flood-opacity="0" result="BackgroundImageFix"/>
<feBlend mode="normal" in="SourceGraphic" in2="BackgroundImageFix" result="shape"/>
<feGaussianBlur stdDeviation="366" result="effect1_foregroundBlur_0_3"/>
</filter>
<clipPath id="clip0_0_3">
<rect width="1512" height="982" fill="white"/>
</clipPath>
<clipPath id="clip1_0_3">
<path d="M1357 344H1476V729H1357V344Z" fill="white"/>
</clipPath>
<clipPath id="clip2_0_3">
<path d="M-37 344H82V729H-37V344Z" fill="white"/>
</clipPath>
<clipPath id="clip3_0_3">
<path d="M741 1040V921H1126V1040H741Z" fill="white"/>
</clipPath>
<clipPath id="clip4_0_3">
<path d="M314 1040V921H699V1040H314Z" fill="white"/>
</clipPath>
</defs>
</svg>
